<svg width="27" height="27" viewBox="0 0 27 27" fill="none" xmlns="http://www.w3.org/2000/svg">
<path d="M7.58862 4.21875C7.08271 4.21875 6.74544 4.725 6.74544 5.0625V9.28125H5.05908V5.0625C5.05908 4.55625 4.72181 4.21875 4.2159 4.21875C3.70999 4.21875 3.37272 4.725 3.37272 5.0625V9.28125H1.68636V5.0625C1.68636 4.55625 1.34909 4.21875 0.843179 4.21875C0.337272 4.21875 0 4.725 0 5.0625V10.6313C0 12.15 1.18045 13.3313 2.52954 13.5V25.3125C2.52954 26.325 3.20408 27 4.2159 27C5.22771 27 5.90226 26.325 5.90226 25.3125V13.5C7.25134 13.3313 8.4318 12.15 8.4318 10.6313V5.0625C8.4318 4.725 8.09452 4.21875 7.58862 4.21875ZM10.9613 5.0625V15.1875H12.6477V25.3125C12.6477 26.325 13.3222 27 14.3341 27C15.3459 27 16.0204 26.325 16.0204 25.3125V0C13.1536 0 10.9613 2.19375 10.9613 5.0625ZM22.7658 3.375C20.4049 3.375 18.5499 5.90625 18.5499 8.94375C18.3813 10.9688 19.3931 12.825 21.0795 14.0063V25.3125C21.0795 26.325 21.754 27 22.7658 27C23.7777 27 24.4522 26.325 24.4522 25.3125V14.0063C26.1386 12.825 27.1504 10.9688 26.9817 8.94375C26.9817 5.90625 25.1267 3.375 22.7658 3.375Z" fill="#4C6029"/>
</svg>
