<svg width="25" height="25" viewBox="0 0 25 25" fill="none" xmlns="http://www.w3.org/2000/svg">
<path d="M18.6731 5.76612L13.1731 0.284468C12.9935 0.103411 12.7494 0.00109074 12.4945 8.6699e-06C12.2395 -0.0010734 11.9945 0.0991714 11.8135 0.278698L11.8077 0.284468L6.32692 5.76612H0.961538C0.706523 5.76612 0.461951 5.86744 0.281628 6.0478C0.101305 6.22815 0 6.47276 0 6.72782V24.0383C0 24.2934 0.101305 24.538 0.281628 24.7183C0.461951 24.8987 0.706523 25 0.961538 25H24.0385C24.2935 25 24.538 24.8987 24.7184 24.7183C24.8987 24.538 25 24.2934 25 24.0383V6.72782C25 6.47276 24.8987 6.22815 24.7184 6.0478C24.538 5.86744 24.2935 5.76612 24.0385 5.76612H18.6731ZM12.5 2.32326L15.9423 5.76612H9.05769L12.5 2.32326ZM23.0769 23.0766H1.92308V7.68951H23.0769V23.0766ZM7.69231 13.4597C7.18228 13.4597 6.69313 13.257 6.33249 12.8963C5.97184 12.5356 5.76923 12.0464 5.76923 11.5363C5.76923 11.0262 5.97184 10.537 6.33249 10.1762C6.69313 9.81554 7.18228 9.6129 7.69231 9.6129C8.20234 9.6129 8.69148 9.81554 9.05213 10.1762C9.41278 10.537 9.61538 11.0262 9.61538 11.5363C9.61538 12.0464 9.41278 12.5356 9.05213 12.8963C8.69148 13.257 8.20234 13.4597 7.69231 13.4597ZM21.1538 21.1532H6.73077L9.61538 15.3831L12.0192 20.1915L16.3462 11.5363L21.1538 21.1532Z" fill="#4C6029"/>
</svg>
