<svg width="81" height="69" viewBox="0 0 81 69" fill="none" xmlns="http://www.w3.org/2000/svg">
<path d="M36.4762 2.51389C36.8468 1.75939 37.4206 1.12403 38.1325 0.679752C38.8444 0.235469 39.6661 0 40.5045 0C41.3429 0 42.1646 0.235469 42.8765 0.679752C43.5884 1.12403 44.1621 1.75939 44.5327 2.51389L53.2 20.1301L72.5869 22.9595C73.4163 23.0804 74.1955 23.4317 74.8363 23.9737C75.4771 24.5158 75.9539 25.2269 76.2127 26.0267C76.4716 26.8264 76.5022 27.6829 76.3011 28.4992C76.1 29.3155 75.6752 30.0591 75.0748 30.6458L61.0455 44.3603L64.3597 63.7337C64.5012 64.5622 64.4088 65.414 64.093 66.1926C63.7772 66.9713 63.2506 67.6457 62.5727 68.1398C61.8947 68.6338 61.0926 68.9277 60.2568 68.9883C59.4211 69.0488 58.5852 68.8736 57.8435 68.4824L40.509 59.3364L23.1655 68.4824C22.4236 68.8727 21.5877 69.0471 20.7522 68.9858C19.9167 68.9246 19.115 68.63 18.4376 68.1356C17.7602 67.6411 17.2342 66.9664 16.9189 66.1878C16.6037 65.4091 16.5119 64.5575 16.6538 63.7292L19.9635 44.3603L5.93422 30.6458C5.33378 30.0591 4.90898 29.3155 4.70788 28.4992C4.50677 27.6829 4.53738 26.8264 4.79625 26.0267C5.05513 25.2269 5.53192 24.5158 6.1727 23.9737C6.81348 23.4317 7.59267 23.0804 8.42213 22.9595L27.809 20.1346L36.4762 2.50939V2.51389ZM15.3065 46.6085C15.4909 46.8396 15.6281 47.1047 15.7103 47.389C15.7925 47.6732 15.818 47.9709 15.7855 48.265C15.753 48.5592 15.663 48.844 15.5207 49.1032C15.3784 49.3624 15.1866 49.591 14.9563 49.7759L3.72923 58.7867C3.49995 58.9804 3.23434 59.1261 2.94805 59.2152C2.66177 59.3042 2.36061 59.3349 2.06232 59.3054C1.76403 59.2758 1.47466 59.1867 1.21126 59.0431C0.947867 58.8996 0.715779 58.7047 0.528681 58.4697C0.341583 58.2348 0.203263 57.9646 0.121876 57.6752C0.0404896 57.3858 0.0176834 57.083 0.0548026 56.7846C0.0919218 56.4862 0.188215 56.1983 0.338005 55.9378C0.487794 55.6773 0.688048 55.4496 0.92696 55.268L12.154 46.2571C12.6187 45.885 13.2117 45.7129 13.8027 45.7788C14.3937 45.8447 14.9345 46.1431 15.3065 46.6085ZM14.9563 12.4709C15.2022 12.6499 15.4093 12.877 15.5652 13.1386C15.721 13.4002 15.8224 13.6908 15.863 13.9929C15.9037 14.2949 15.8828 14.6021 15.8017 14.8958C15.7206 15.1895 15.581 15.4636 15.3912 15.7016C15.2014 15.9396 14.9655 16.1365 14.6977 16.2804C14.4298 16.4242 14.1357 16.5121 13.8331 16.5386C13.5304 16.5651 13.2256 16.5297 12.937 16.4346C12.6484 16.3394 12.382 16.1865 12.154 15.9851L0.92696 6.97427C0.681057 6.79531 0.473907 6.56816 0.318047 6.30655C0.162189 6.04494 0.0608626 5.75433 0.0202029 5.4523C-0.0204567 5.15026 0.000395696 4.84309 0.0814977 4.54938C0.1626 4.25566 0.302265 3.98152 0.492039 3.74353C0.681813 3.50554 0.917749 3.30865 1.18557 3.1648C1.45338 3.02094 1.74751 2.93311 2.05015 2.9066C2.35278 2.8801 2.65763 2.91548 2.94624 3.01061C3.23485 3.10574 3.50122 3.25863 3.72923 3.46003L14.9563 12.4709ZM65.689 46.613C65.5048 46.8443 65.368 47.1098 65.2861 47.3941C65.2043 47.6785 65.1791 47.9763 65.2121 48.2705C65.245 48.5646 65.3354 48.8494 65.4781 49.1084C65.6208 49.3675 65.813 49.5958 66.0437 49.7804L77.2708 58.7912C77.5 58.9849 77.7657 59.1306 78.0519 59.2197C78.3382 59.3088 78.6394 59.3394 78.9377 59.3099C79.236 59.2803 79.5253 59.1912 79.7887 59.0477C80.0521 58.9041 80.2842 58.7092 80.4713 58.4742C80.6584 58.2393 80.7967 57.9692 80.8781 57.6797C80.9595 57.3903 80.9823 57.0875 80.9452 56.7891C80.9081 56.4907 80.8118 56.2028 80.662 55.9423C80.5122 55.6818 80.312 55.4541 80.073 55.2725L68.846 46.2616C68.6157 46.0766 68.3514 45.939 68.0681 45.8566C67.7848 45.7741 67.4881 45.7485 67.1949 45.7811C66.9017 45.8137 66.6178 45.904 66.3594 46.0467C66.101 46.1895 65.8732 46.3819 65.689 46.613ZM66.0437 12.4709C65.6105 12.8536 65.3409 13.3889 65.2907 13.9658C65.2405 14.5426 65.4136 15.1167 65.7742 15.5689C66.1348 16.0211 66.655 16.3166 67.227 16.3941C67.799 16.4716 68.3788 16.3251 68.846 15.9851L80.073 6.97427C80.3189 6.79531 80.5261 6.56816 80.6819 6.30655C80.8378 6.04494 80.9391 5.75433 80.9798 5.4523C81.0205 5.15026 80.9996 4.84309 80.9185 4.54938C80.8374 4.25566 80.6977 3.98152 80.508 3.74353C80.3182 3.50554 80.0822 3.30865 79.8144 3.1648C79.5466 3.02094 79.2525 2.93311 78.9499 2.9066C78.6472 2.8801 78.3424 2.91548 78.0538 3.01061C77.7651 3.10574 77.4988 3.25863 77.2708 3.46003L66.0437 12.4709Z" fill="#4C6029"/>
</svg>
