<svg width="24" height="22" viewBox="0 0 24 22" fill="none" xmlns="http://www.w3.org/2000/svg">
<path d="M23.0529 15.5966H7.12161L7.92152 13.9358L21.2124 13.9112C21.6618 13.9112 22.047 13.584 22.1273 13.1313L23.9679 2.62898C24.0161 2.35354 23.9438 2.06991 23.7673 1.85447C23.68 1.74844 23.5711 1.66303 23.4483 1.60416C23.3254 1.5453 23.1914 1.51439 23.0556 1.51357L6.14781 1.4563L6.00334 0.763605C5.91238 0.321805 5.52179 0 5.07769 0H0.944376C0.693912 0 0.453706 0.101426 0.276601 0.281965C0.0994965 0.462503 0 0.707367 0 0.962688C0 1.21801 0.0994965 1.46287 0.276601 1.64341C0.453706 1.82395 0.693912 1.92538 0.944376 1.92538H4.31256L4.94393 4.98525L6.49827 12.6567L4.49716 15.9866C4.39324 16.1296 4.33064 16.2994 4.31646 16.4767C4.30228 16.6541 4.33707 16.832 4.4169 16.9902C4.57742 17.3147 4.90113 17.5193 5.25961 17.5193H6.93969C6.58152 18.0042 6.38806 18.5949 6.38859 19.2019C6.38859 20.7455 7.61922 22 9.13343 22C10.6476 22 11.8783 20.7455 11.8783 19.2019C11.8783 18.5938 11.6803 18.002 11.3272 17.5193H15.6371C15.2789 18.0042 15.0854 18.5949 15.0859 19.2019C15.0859 20.7455 16.3166 22 17.8308 22C19.345 22 20.5756 20.7455 20.5756 19.2019C20.5756 18.5938 20.3777 18.002 20.0245 17.5193H23.0556C23.5746 17.5193 24 17.0884 24 16.5566C23.9984 16.3015 23.898 16.0575 23.7206 15.8776C23.5432 15.6978 23.3032 15.5968 23.0529 15.5966ZM6.54108 3.35441L21.9454 3.40622L20.4365 12.0186L8.33619 12.0404L6.54108 3.35441ZM9.13343 20.0637C8.66793 20.0637 8.28804 19.6765 8.28804 19.2019C8.28804 18.7274 8.66793 18.3402 9.13343 18.3402C9.59893 18.3402 9.97882 18.7274 9.97882 19.2019C9.97882 19.4305 9.88975 19.6497 9.73121 19.8113C9.57267 19.9729 9.35764 20.0637 9.13343 20.0637ZM17.8308 20.0637C17.3653 20.0637 16.9854 19.6765 16.9854 19.2019C16.9854 18.7274 17.3653 18.3402 17.8308 18.3402C18.2963 18.3402 18.6762 18.7274 18.6762 19.2019C18.6762 19.4305 18.5871 19.6497 18.4286 19.8113C18.27 19.9729 18.055 20.0637 17.8308 20.0637Z" fill="#474B4E"/>
</svg>
