<svg width="21" height="18" viewBox="0 0 21 18" fill="none" xmlns="http://www.w3.org/2000/svg">
<path d="M14.0036 0C14.2688 0 14.5233 0.0903107 14.7108 0.251065C14.8984 0.411819 15.0038 0.629848 15.0038 0.857189V1.71352L20.0051 1.71438V6.85751L17.9846 6.85665L20.7523 13.3679C20.9399 13.8032 21.0224 14.2667 20.9948 14.7302C20.9672 15.1937 20.8302 15.6475 20.5919 16.0643C20.3536 16.4811 20.0191 16.852 19.6085 17.1547C19.198 17.4574 18.7201 17.6855 18.2037 17.8253C17.6873 17.965 17.1431 18.0135 16.6042 17.9677C16.0653 17.9219 15.5428 17.7828 15.0685 17.5589C14.5941 17.3349 14.1778 17.0308 13.8446 16.6649C13.5115 16.299 13.2685 15.879 13.1303 15.4303H8.87625C8.64871 16.1825 8.12985 16.8463 7.40462 17.3129C6.6794 17.7795 5.7908 18.0212 4.88433 17.9985C3.97786 17.9758 3.10725 17.69 2.41506 17.1879C1.72288 16.6858 1.25014 15.9972 1.07427 15.2348C0.750057 15.09 0.478437 14.8717 0.28901 14.6037C0.0995836 14.3357 -0.000383609 14.0283 1.10623e-06 13.715V2.57157C1.10623e-06 2.34423 0.105385 2.1262 0.292969 1.96544C0.480552 1.80469 0.734971 1.71438 1.00025 1.71438H8.00203C8.26731 1.71438 8.52173 1.80469 8.70932 1.96544C8.8969 2.1262 9.00228 2.34423 9.00228 2.57157V9.42908C9.00232 9.63903 9.09226 9.84168 9.25506 9.99857C9.41786 10.1555 9.64219 10.2557 9.88551 10.2803L10.0025 10.2863H12.003C12.248 10.2862 12.4845 10.2092 12.6676 10.0696C12.8507 9.93013 12.9676 9.73788 12.9963 9.52937L13.0033 9.42908V1.71438H10.0025V0H14.0036ZM5.00127 12.8578C4.4707 12.8578 3.96186 13.0385 3.5867 13.36C3.21153 13.6815 3.00076 14.1175 3.00076 14.5722C3.00076 15.0269 3.21153 15.463 3.5867 15.7845C3.96186 16.106 4.4707 16.2866 5.00127 16.2866C5.53184 16.2866 6.04067 16.106 6.41584 15.7845C6.79101 15.463 7.00178 15.0269 7.00178 14.5722C7.00178 14.1175 6.79101 13.6815 6.41584 13.36C6.04067 13.0385 5.53184 12.8578 5.00127 12.8578ZM17.0043 12.857C16.4737 12.857 15.9649 13.0376 15.5897 13.3591C15.2146 13.6806 15.0038 14.1167 15.0038 14.5714C15.0038 15.026 15.2146 15.4621 15.5897 15.7836C15.9649 16.1051 16.4737 16.2857 17.0043 16.2857C17.5349 16.2857 18.0437 16.1051 18.4189 15.7836C18.7941 15.4621 19.0048 15.026 19.0048 14.5714C19.0048 14.1167 18.7941 13.6806 18.4189 13.3591C18.0437 13.0376 17.5349 12.857 17.0043 12.857ZM15.856 6.85665H15.0038V9.42908C15.0038 10.1111 14.6877 10.7652 14.1249 11.2475C13.5622 11.7297 12.7989 12.0006 12.003 12.0006H10.0025C9.38193 12.0006 8.77659 11.8358 8.26984 11.5287C7.76308 11.2217 7.37982 10.7876 7.17282 10.2863H2.00051V12.3041C2.48147 11.8374 3.1016 11.4916 3.79441 11.3039C4.48722 11.1162 5.22657 11.0937 5.93319 11.2387C6.63982 11.3837 7.28706 11.6908 7.80553 12.127C8.324 12.5633 8.69413 13.1122 8.87625 13.715H13.1293C13.3814 12.8791 13.992 12.1553 14.8393 11.6882C15.6866 11.221 16.7083 11.0449 17.7005 11.1949L15.856 6.85665ZM7.00178 6.00032H2.00051V8.57189H7.00178V6.00032ZM18.0046 3.42876H15.0038V5.14313H18.0046V3.42876ZM7.00178 3.42876H2.00051V4.28594H7.00178V3.42876Z" fill="#474B4E"/>
</svg>
