<svg width="51" height="44" viewBox="0 0 51 44" fill="none" xmlns="http://www.w3.org/2000/svg">
<path fill-rule="evenodd" clip-rule="evenodd" d="M35.5445 8.56125C25.383 8.19115 15.6736 15.0066 12.4046 24.6398C12.1671 25.3956 12.9062 26.1012 13.6519 25.9737C12.889 29.807 14.5564 34.9667 18.8994 35.5106C19.789 35.6225 20.6831 35.5582 21.5739 35.6396C22.368 35.7121 26.6901 38.139 28.3088 38.7074C31.7164 39.8952 40.2912 39.6777 43.7022 38.7074C43.8263 38.9892 46.4755 28.1474 47.0789 24.7859C47.299 23.3297 45.2889 22.2512 45.4368 20.7504C45.6272 18.8224 47.8868 16.472 47.1945 14.6366C45.3699 9.96522 40.0741 8.66177 35.5445 8.56125Z" fill="white"/>
<path fill-rule="evenodd" clip-rule="evenodd" d="M30.4996 0.0694505C30.9562 0.107334 31.4153 0.171649 31.8663 0.256226C33.2373 0.0324224 34.6564 0.280912 35.9858 0.711789C39.1001 1.72065 42.0973 3.47234 44.4442 5.75885C45.6521 6.93605 46.6399 8.29207 47.2481 9.86929C47.5574 10.6694 47.7314 11.5232 47.7816 12.3787L47.7872 12.4824C47.8013 12.7663 47.8076 13.1067 47.7738 13.4439C47.8823 14.1245 47.9794 14.8107 47.9864 15.4991C47.9901 15.818 47.9693 16.1364 47.9303 16.4526L47.9437 16.4827C47.8875 16.8602 47.8202 17.2362 47.7437 17.6102L47.7243 17.6351C47.7139 17.7109 47.7016 17.7868 47.6905 17.8626C47.6489 18.0552 47.605 18.247 47.5589 18.4381C47.4589 18.8519 47.3485 19.263 47.2291 19.6716C47.2083 19.7434 47.2284 19.7999 47.2674 19.8367C47.1808 20.1479 47.0856 20.4568 46.9804 20.762C47.0321 21.0293 47.0841 21.2962 47.1395 21.5628C47.4284 22.948 47.673 24.3417 48.0013 25.7188C48.6671 28.5137 49.6791 31.264 49.9571 34.1371C50.1735 36.3654 49.814 38.802 48.4262 40.6221C47.2299 42.1906 45.4305 43.1167 43.4869 43.3635C42.5575 43.4825 41.6039 43.4279 40.6946 43.1933L40.5953 43.1673C40.1399 43.0449 39.5603 42.8535 39.1369 42.5449C38.6778 42.3836 38.2443 42.0858 37.9829 41.7951C37.6264 41.3976 37.2372 40.7184 37.3342 40.1533C36.8033 40.1968 36.2695 40.2091 35.7442 40.2073C34.4497 40.2047 33.144 40.1024 31.899 39.7269C30.7881 39.3923 29.494 38.8328 28.8371 37.8231C28.8062 37.7755 28.8572 37.7068 28.9111 37.725C29.442 37.9112 29.9379 38.1622 30.4855 38.3042C31.0238 38.4432 31.5625 38.5745 32.1179 38.6317C33.2035 38.7436 34.3058 38.7284 35.3951 38.6748L35.7691 38.6555C36.9349 38.593 38.1394 38.5042 39.2298 38.0689C39.6574 37.8978 40.0533 37.6595 40.4143 37.3763L40.4712 37.3313C40.6645 37.1744 40.8641 37.0424 41.0671 36.9171C41.0961 36.8803 41.1255 36.8431 41.1545 36.8052C41.6162 36.2141 42.1125 35.6438 42.5281 35.0193C43.3546 33.7794 43.6736 32.4912 43.7167 31.0127C43.762 29.452 43.7672 27.8891 43.7858 26.3281L43.7925 25.808C43.8163 24.0228 43.82 22.2316 43.9576 20.4508C44.0212 19.6233 44.1115 18.7998 44.2502 17.9823L44.2807 17.8072L44.5052 16.5464C44.5591 16.2427 44.5907 15.9298 44.6595 15.6274C44.5822 15.5005 44.4922 15.3783 44.3885 15.2621C44.2925 15.1548 44.1955 15.0507 44.0981 14.9474L44.0282 14.8857C43.8684 14.7433 43.7308 14.6073 43.6018 14.4113L43.5709 14.3628C43.4327 14.1961 43.3022 14.0218 43.1865 13.8304L43.1654 13.7932C43.1367 13.7572 43.1081 13.721 43.0784 13.6854C42.9858 13.5745 42.8888 13.4697 42.7887 13.3694C42.4371 14.047 41.94 14.6339 41.2363 15.0008C40.9816 15.1335 40.6712 15.0198 40.5879 14.7375C40.3771 14.0249 40.0574 13.3621 39.6343 12.762C38.9276 13.9355 37.8071 14.8534 36.4869 15.3012C36.1568 15.4131 35.8665 15.0677 35.9438 14.7593C36.1821 13.8111 36.2293 12.8469 36.0895 11.8937C35.591 12.2491 35.0772 12.5839 34.5493 12.8942C33.3749 13.8003 32.1302 14.6156 30.7614 15.2012C30.445 15.3365 29.9691 15.1091 30.113 14.7037C30.2338 14.3623 30.3335 14.0153 30.397 13.6589L30.4112 13.5765C30.4115 13.574 30.4119 13.5715 30.4123 13.569C27.2419 17.9332 19.5541 22.139 18.9641 22.1796H18.9481C19.3165 22.5309 19.614 22.9651 19.8084 23.4636C20.0129 23.9878 19.1794 24.2157 18.9641 23.715L18.957 23.6982C18.6254 22.848 17.8057 22.239 16.9134 22.0948C16.374 22.1926 15.8643 22.4521 15.5167 22.8458C14.8323 23.6201 14.8263 24.554 15.2933 25.4351L15.3617 25.5637C15.6145 26.0344 15.881 26.5062 16.0234 27.0229C16.1974 27.6575 16.0658 28.3007 16.1796 28.9342L16.1859 28.9676C16.2398 29.2494 16.3565 29.5699 16.6926 29.4929C16.7186 29.487 16.7435 29.4788 16.7688 29.4703C16.8395 29.5268 16.925 29.5732 17.0313 29.6041C17.2915 29.6799 17.5789 29.6431 17.838 29.5818C18.0882 29.5231 18.3314 29.4305 18.5652 29.3219C18.5909 29.3859 18.6068 29.4524 18.6087 29.5167C18.6165 29.8443 18.4804 30.1142 18.2711 30.3335C18.605 30.7547 18.8901 31.2179 19.2117 31.6481C19.6734 32.2648 20.1456 32.8682 20.6482 33.4526C21.1709 34.0616 21.7401 34.6367 22.3308 35.1806C22.745 35.5613 23.4294 35.968 23.6889 36.5208C23.9874 36.613 24.2406 36.8413 24.3332 37.2168C24.5019 37.8971 24.5514 39.4909 24.419 40.1827C24.2874 40.8683 23.7859 41.2954 23.2316 41.6568C23.0777 41.7571 22.9041 41.7467 22.7628 41.6716C22.6383 41.7925 22.4977 41.9033 22.3371 42.0021C21.7438 42.368 21.0542 42.5007 20.3709 42.5776C19.4481 42.8717 18.4533 42.9494 17.4696 42.7661C17.1484 42.804 16.8268 42.8382 16.5045 42.8665C13.2077 43.1528 9.8562 42.9089 6.64079 42.1256C5.16562 41.7661 3.77224 41.1125 2.4744 40.2734C0.237113 38.8269 -0.709589 34.7664 0.588433 30.8848L0.691412 30.5789C1.2762 28.845 1.90709 27.12 2.75249 25.502L2.85323 25.3098C3.6306 23.8343 4.48566 22.3602 5.62103 21.1293C6.18946 20.5133 6.85009 19.9538 7.59623 19.5627C7.87914 19.414 8.21001 19.3114 8.53308 19.1946L8.53977 19.114L8.54684 19.0333C8.56803 18.7745 8.59517 18.5165 8.63011 18.2593C8.7606 17.296 8.94463 16.3475 9.20635 15.4108C9.46845 14.4728 9.79039 13.5506 10.1778 12.6568C10.8243 11.1656 11.6362 9.75107 12.5734 8.42371C12.6404 8.28664 12.7084 8.15005 12.7779 8.01455C13.5679 6.47346 14.5914 5.00372 15.9112 3.86619C17.4265 2.56036 19.2515 1.74976 21.1557 1.18055C23.1309 0.591076 25.1916 0.187524 27.2497 0.0518297C28.333 -0.0195495 29.4178 -0.0204426 30.4996 0.0694505ZM16.0554 24.8273C17.0469 24.1797 18.3975 24.6235 18.9002 25.6756C19.263 26.4381 18.0629 26.8672 17.8733 26.1076C17.6841 25.3463 16.8729 24.8009 16.0933 24.9172C16.0394 24.9262 16.006 24.8589 16.0554 24.8273Z" fill="black"/>
<path fill-rule="evenodd" clip-rule="evenodd" d="M31.5506 28.59C33.064 28.4068 34.531 28.8692 36.0106 29.1023C36.7921 29.2254 37.5739 29.3172 38.3647 29.3514C38.5238 29.3581 38.6829 29.3622 38.842 29.3655C38.8565 29.2258 38.935 29.0975 39.1049 29.0205C39.4532 28.8629 39.7317 28.7919 40.1142 28.8071C40.464 28.8209 40.815 28.857 41.1596 28.9198C41.7853 29.0343 42.414 29.2942 42.8716 29.7455C43.9308 30.7898 43.7698 32.4676 42.9512 33.6048C41.2604 35.9555 38.174 36.0648 35.5307 36.0339L35.2868 36.0309C32.88 35.9964 29.4367 36.3547 28.3433 33.6219C27.9411 32.617 27.9972 31.4523 28.4894 30.4883C29.0765 29.3388 30.3126 28.7402 31.5506 28.59ZM39.0684 32.504L39.0469 32.5047C37.9371 32.5475 36.8278 32.5776 35.7177 32.5969C35.7508 32.8817 35.7846 33.1661 35.8237 33.4501C35.8538 33.6736 35.8865 33.8966 35.9203 34.1197C35.9348 34.2141 35.9876 34.3606 35.9724 34.4539L35.9672 34.4911C36.024 34.5167 36.0757 34.5584 36.1144 34.6182C36.1278 34.639 36.1374 34.6602 36.1471 34.6811C37.0092 34.6877 37.9368 34.671 38.8156 34.5149L38.8171 34.4955C38.8331 34.3836 38.8799 34.3082 38.942 34.2565C39.0037 33.8992 38.9982 33.5185 39.022 33.1642C39.0368 32.9442 39.0528 32.7241 39.0684 32.504ZM34.8697 32.6122C34.0697 32.6256 33.2696 32.6363 32.4699 32.6263L32.1071 32.6207C32.1837 33.0312 32.267 33.4405 32.3365 33.8535C32.4086 34.284 32.029 34.558 31.7004 34.5468C31.7372 34.5528 31.774 34.5591 31.8108 34.5643C32.838 34.7093 33.9042 34.6706 34.9467 34.6695C34.8905 34.3431 34.9132 33.9743 34.9046 33.7018L34.9032 33.6598C34.8872 33.3103 34.876 32.9613 34.8697 32.6122ZM29.4371 32.5367C29.4646 32.7501 29.5189 32.959 29.5995 33.1535C29.9408 33.9751 30.7238 34.3587 31.5517 34.5201C31.4082 34.4706 31.294 34.3517 31.2651 34.1479C31.1933 33.6412 31.1677 33.126 31.1654 32.6114C30.5884 32.6062 30.0074 32.594 29.4371 32.5367ZM42.0782 32.3612C41.6674 32.4583 41.1897 32.4136 40.7867 32.4322C40.409 32.4493 40.0313 32.4642 39.6536 32.4795C39.6711 32.7367 39.6885 32.994 39.7075 33.2512C39.7317 33.5836 39.7339 33.9349 39.7978 34.2658C40.5581 34.0067 41.2392 33.5918 41.75 32.9278C41.8775 32.7624 41.9913 32.5683 42.0782 32.3612ZM31.377 29.9381C30.6929 30.0998 30.0457 30.4411 29.6977 31.066C29.4914 31.4367 29.4003 31.8757 29.4177 32.3088C29.9958 32.2415 30.584 32.2162 31.1691 32.1951C31.171 32.0898 31.1736 31.9846 31.1769 31.8798L31.1859 31.6114C31.2019 31.0987 31.2097 30.4552 31.377 29.9381ZM34.9173 30.0005L34.6162 29.9667C33.7801 29.8719 32.9439 29.7719 32.1075 29.8291C31.9867 29.8373 31.8636 29.8507 31.7405 29.8685C31.8885 30.4009 31.8759 31.0262 31.9376 31.5534C31.9617 31.7571 31.9919 31.9594 32.0249 32.1605L32.1703 32.1538C33.0678 32.1051 33.9659 32.0753 34.8641 32.0397C34.8641 31.8716 34.8652 31.7032 34.8678 31.5348L34.8712 31.366C34.8812 30.9359 34.8533 30.4511 34.9173 30.0005ZM39.1175 29.9321C38.2416 30.0734 37.3364 30.1035 36.4757 30.1046C36.1322 30.105 35.7887 30.0838 35.4452 30.0533C35.4675 30.2358 35.4794 30.4206 35.4961 30.6002C35.53 30.9638 35.5686 31.327 35.611 31.6895L35.6485 32.0069C36.7523 31.9567 37.8565 31.9028 38.9599 31.8471L39.1156 31.8385L39.1595 31.2288C39.1893 30.8221 39.222 30.4154 39.2681 30.0109L39.2335 29.9983C39.1926 29.9816 39.1539 29.9585 39.1175 29.9321ZM39.4978 30.0838C39.5461 30.6585 39.5729 31.2359 39.6082 31.8118L40.3362 31.7731C40.4573 31.7664 40.5785 31.7597 40.6997 31.7527C41.1711 31.7255 41.7771 31.5831 42.2433 31.7162C42.279 31.2931 42.1578 30.8812 41.7753 30.5972C41.1039 30.0979 40.2488 30.2756 39.4978 30.0838ZM37.0118 24.9437C38.0955 24.3244 40.8139 23.6916 40.9864 25.6375C41.0656 26.533 40.3982 27.2751 39.6194 27.606L39.59 27.6182C38.8595 27.9183 37.5646 28.2566 36.9323 27.6067C36.4062 27.0654 37.104 26.0955 37.758 26.5386C38.094 26.7665 38.8011 26.5989 39.1762 26.4903L39.1997 26.4836C39.6041 26.3646 40.1436 25.9851 39.9763 25.4876C39.8283 25.0478 39.1982 24.9675 38.8037 24.9534C38.2149 24.9322 37.6416 25.0687 37.0579 25.1133C36.9653 25.12 36.9371 24.9865 37.0118 24.9437ZM41.5002 21.8146C42.9705 21.7458 43.8854 23.3485 43.5471 24.6612C43.4887 24.888 43.2348 25.1103 42.9898 25.0846L42.9281 25.0791C42.8965 25.0761 42.8649 25.072 42.8359 25.0642C42.6032 24.9999 42.3946 24.7582 42.4117 24.5077L42.4162 24.4348C42.4504 23.8147 42.3831 23.1002 41.6444 22.95C41.018 22.8224 40.6685 23.424 40.6611 23.9779C40.6596 24.0764 40.5488 24.1448 40.4618 24.092C40.009 23.8169 39.9306 23.2701 40.1034 22.799C40.3228 22.202 40.8711 21.844 41.5002 21.8146ZM30.5873 22.1585C31.6573 21.8019 32.812 22.3711 33.3302 23.3154C33.512 23.3682 33.6934 23.508 33.6681 23.7221C33.6317 24.0299 33.5767 24.2244 33.3629 24.4578C33.028 24.8233 32.4012 24.6363 32.2621 24.1865L32.2562 24.1664C32.0982 23.5849 31.4565 23.2013 30.8725 23.4046C30.1899 23.6426 30.2096 24.3619 29.7311 24.7809C29.6746 24.83 29.6073 24.8378 29.5401 24.8055C29.0315 24.5601 29.1229 23.8221 29.304 23.3998C29.5419 22.8455 30.004 22.3525 30.5873 22.1585ZM29.1296 18.9152C29.997 18.0322 32.258 17.1775 32.8514 18.8081C32.9644 19.1189 32.7239 19.5375 32.3997 19.6022C31.8692 19.7074 31.3985 19.4777 30.8714 19.5189C30.4446 19.5524 29.9996 19.6948 29.6583 19.9584C28.7136 20.6893 28.5058 21.925 27.8474 22.8548C27.8151 22.9001 27.753 22.8812 27.747 22.8277C27.5972 21.4737 28.1798 19.8821 29.1296 18.9152ZM40.4391 18.046C41.0146 17.843 41.6663 17.8605 42.2448 18.0404C42.8277 18.2215 43.3623 18.5661 43.7746 19.0159C43.9616 19.22 44.1349 19.4453 44.2735 19.6855C44.3471 19.8126 44.4248 20.0751 44.5085 20.2316C44.9617 20.493 45.1557 21.0882 44.7498 21.5116L44.7315 21.5302L44.6773 21.5837C44.459 21.7993 44.13 21.8927 43.8322 21.8068C43.1657 21.6142 43.085 21.0904 42.8541 20.5342C42.7017 20.1673 42.4407 19.842 42.124 19.6033C41.376 19.0397 40.1495 18.8598 39.2487 19.1256C39.2008 19.1397 39.1446 19.0788 39.1788 19.0345C39.3495 18.8141 39.4476 18.633 39.6763 18.4549C39.9082 18.2743 40.1614 18.1438 40.4391 18.046Z" fill="black"/>
<path fill-rule="evenodd" clip-rule="evenodd" d="M45.8307 23.5636C45.5809 24.2417 45.2009 24.9477 44.7362 25.5184C42.8562 27.1073 41.0293 26.2277 40.1018 24.0745C39.7493 22.5524 40.6851 20.9133 41.6766 19.7939C43.1086 18.3615 45.4459 19.1132 46.1043 20.8159C46.1445 21.0367 46.1686 21.2568 46.1801 21.4762C46.1664 22.1889 46.0805 22.7982 45.8307 23.4755M27.7591 22.1963C30.2358 19.256 34.8695 19.0987 34.7513 23.6239C34.2189 29.3517 25.2601 27.9457 27.7591 22.1963ZM46.6095 19.7434C46.5225 19.5969 46.4263 19.4549 46.3214 19.3192C46.2824 19.2961 46.2601 19.0913 46.1173 19.0761C44.2079 16.9738 40.8535 18.1667 39.6411 20.2612C39.4199 20.5263 39.2393 20.8364 39.1062 21.1639C37.9121 20.9453 36.5198 20.9877 35.409 21.4379C34.3078 18.5679 30.9734 18.3117 28.7763 19.5378C27.4097 20.2088 26.5234 21.6134 25.1943 22.3851C22.0696 22.6097 18.7163 21.9111 15.6481 22.6933C13.2286 23.1952 15.2514 24.418 15.657 23.6019C18.5497 22.7491 21.9767 23.47 24.9802 23.2778C25.2925 23.8049 25.8914 24.2362 26.4881 24.2176C27.1327 29.9205 35.4658 28.9747 35.7532 23.9057C36.0796 23.3911 36.4848 22.8986 37.0655 22.5781C37.2875 22.532 37.5024 22.4725 37.6983 22.3803C38.0336 22.3331 38.5504 22.4747 38.8589 22.7536C39.9155 29.0814 46.0039 28.3442 47.0917 22.8008C47.1133 22.7788 47.1739 22.6963 47.2203 22.5636C47.5929 22.0721 48.5044 21.8896 48.3587 21.0598C48.229 20.23 47.1791 20.2401 46.6095 19.7434Z" fill="black"/>
</svg>
