<svg width="6" height="12" viewBox="0 0 6 12" fill="none" xmlns="http://www.w3.org/2000/svg">
<path d="M0.995538 5.91278e-05C1.12361 -0.000376701 1.25016 0.0278826 1.36588 0.0827589C1.48159 0.137636 1.58354 0.217736 1.66423 0.317173L5.80498 5.45954C5.93107 5.6129 6 5.80526 6 6.00378C6 6.2023 5.93107 6.39466 5.80498 6.54801L1.51849 11.6904C1.37297 11.8654 1.16387 11.9755 0.937177 11.9964C0.710485 12.0173 0.484775 11.9473 0.3097 11.8018C0.134626 11.6563 0.0245285 11.4473 0.00362778 11.2206C-0.0172729 10.994 0.0527353 10.7684 0.198252 10.5933L4.03037 5.99949L0.326847 1.40564C0.222013 1.27984 0.155421 1.12665 0.13495 0.96419C0.114478 0.801735 0.140983 0.636816 0.211329 0.488949C0.281675 0.341082 0.392918 0.216455 0.531895 0.129815C0.670871 0.0431738 0.831765 -0.00185394 0.995538 5.91278e-05Z" fill="#474B4E"/>
</svg>
