<svg width="80" height="80" viewBox="0 0 80 80" fill="none" xmlns="http://www.w3.org/2000/svg">
<path d="M0 0H3.2V3.2H0V0ZM3.2 0H6.4V3.2H3.2V0ZM6.4 0H9.6V3.2H6.4V0ZM9.6 0H12.8V3.2H9.6V0ZM12.8 0H16V3.2H12.8V0ZM16 0H19.2V3.2H16V0ZM19.2 0H22.4V3.2H19.2V0ZM35.2 0H38.4V3.2H35.2V0ZM44.8 0H48V3.2H44.8V0ZM48 0H51.2V3.2H48V0ZM51.2 0H54.4V3.2H51.2V0ZM57.6 0H60.8V3.2H57.6V0ZM60.8 0H64V3.2H60.8V0ZM64 0H67.2V3.2H64V0ZM67.2 0H70.4V3.2H67.2V0ZM70.4 0H73.6V3.2H70.4V0ZM73.6 0H76.8V3.2H73.6V0ZM76.8 0H80V3.2H76.8V0ZM0 3.2H3.2V6.4H0V3.2ZM19.2 3.2H22.4V6.4H19.2V3.2ZM28.8 3.2H32V6.4H28.8V3.2ZM41.6 3.2H44.8V6.4H41.6V3.2ZM44.8 3.2H48V6.4H44.8V3.2ZM51.2 3.2H54.4V6.4H51.2V3.2ZM57.6 3.2H60.8V6.4H57.6V3.2ZM76.8 3.2H80V6.4H76.8V3.2ZM0 6.4H3.2V9.6H0V6.4ZM6.4 6.4H9.6V9.6H6.4V6.4ZM9.6 6.4H12.8V9.6H9.6V6.4ZM12.8 6.4H16V9.6H12.8V6.4ZM19.2 6.4H22.4V9.6H19.2V6.4ZM28.8 6.4H32V9.6H28.8V6.4ZM32 6.4H35.2V9.6H32V6.4ZM38.4 6.4H41.6V9.6H38.4V6.4ZM44.8 6.4H48V9.6H44.8V6.4ZM48 6.4H51.2V9.6H48V6.4ZM57.6 6.4H60.8V9.6H57.6V6.4ZM64 6.4H67.2V9.6H64V6.4ZM67.2 6.4H70.4V9.6H67.2V6.4ZM70.4 6.4H73.6V9.6H70.4V6.4ZM76.8 6.4H80V9.6H76.8V6.4ZM0 9.6H3.2V12.8H0V9.6ZM6.4 9.6H9.6V12.8H6.4V9.6ZM9.6 9.6H12.8V12.8H9.6V9.6ZM12.8 9.6H16V12.8H12.8V9.6ZM19.2 9.6H22.4V12.8H19.2V9.6ZM25.6 9.6H28.8V12.8H25.6V9.6ZM28.8 9.6H32V12.8H28.8V9.6ZM38.4 9.6H41.6V12.8H38.4V9.6ZM44.8 9.6H48V12.8H44.8V9.6ZM48 9.6H51.2V12.8H48V9.6ZM57.6 9.6H60.8V12.8H57.6V9.6ZM64 9.6H67.2V12.8H64V9.6ZM67.2 9.6H70.4V12.8H67.2V9.6ZM70.4 9.6H73.6V12.8H70.4V9.6ZM76.8 9.6H80V12.8H76.8V9.6ZM0 12.8H3.2V16H0V12.8ZM6.4 12.8H9.6V16H6.4V12.8ZM9.6 12.8H12.8V16H9.6V12.8ZM12.8 12.8H16V16H12.8V12.8ZM19.2 12.8H22.4V16H19.2V12.8ZM32 12.8H35.2V16H32V12.8ZM35.2 12.8H38.4V16H35.2V12.8ZM38.4 12.8H41.6V16H38.4V12.8ZM41.6 12.8H44.8V16H41.6V12.8ZM44.8 12.8H48V16H44.8V12.8ZM57.6 12.8H60.8V16H57.6V12.8ZM64 12.8H67.2V16H64V12.8ZM67.2 12.8H70.4V16H67.2V12.8ZM70.4 12.8H73.6V16H70.4V12.8ZM76.8 12.8H80V16H76.8V12.8ZM0 16H3.2V19.2H0V16ZM19.2 16H22.4V19.2H19.2V16ZM25.6 16H28.8V19.2H25.6V16ZM35.2 16H38.4V19.2H35.2V16ZM51.2 16H54.4V19.2H51.2V16ZM57.6 16H60.8V19.2H57.6V16ZM76.8 16H80V19.2H76.8V16ZM0 19.2H3.2V22.4H0V19.2ZM3.2 19.2H6.4V22.4H3.2V19.2ZM6.4 19.2H9.6V22.4H6.4V19.2ZM9.6 19.2H12.8V22.4H9.6V19.2ZM12.8 19.2H16V22.4H12.8V19.2ZM16 19.2H19.2V22.4H16V19.2ZM19.2 19.2H22.4V22.4H19.2V19.2ZM25.6 19.2H28.8V22.4H25.6V19.2ZM32 19.2H35.2V22.4H32V19.2ZM38.4 19.2H41.6V22.4H38.4V19.2ZM44.8 19.2H48V22.4H44.8V19.2ZM51.2 19.2H54.4V22.4H51.2V19.2ZM57.6 19.2H60.8V22.4H57.6V19.2ZM60.8 19.2H64V22.4H60.8V19.2ZM64 19.2H67.2V22.4H64V19.2ZM67.2 19.2H70.4V22.4H67.2V19.2ZM70.4 19.2H73.6V22.4H70.4V19.2ZM73.6 19.2H76.8V22.4H73.6V19.2ZM76.8 19.2H80V22.4H76.8V19.2ZM25.6 22.4H28.8V25.6H25.6V22.4ZM28.8 22.4H32V25.6H28.8V22.4ZM32 22.4H35.2V25.6H32V22.4ZM44.8 22.4H48V25.6H44.8V22.4ZM48 22.4H51.2V25.6H48V22.4ZM51.2 22.4H54.4V25.6H51.2V22.4ZM3.2 25.6H6.4V28.8H3.2V25.6ZM6.4 25.6H9.6V28.8H6.4V25.6ZM19.2 25.6H22.4V28.8H19.2V25.6ZM41.6 25.6H44.8V28.8H41.6V25.6ZM44.8 25.6H48V28.8H44.8V25.6ZM51.2 25.6H54.4V28.8H51.2V25.6ZM57.6 25.6H60.8V28.8H57.6V25.6ZM60.8 25.6H64V28.8H60.8V25.6ZM67.2 25.6H70.4V28.8H67.2V25.6ZM3.2 28.8H6.4V32H3.2V28.8ZM6.4 28.8H9.6V32H6.4V28.8ZM12.8 28.8H16V32H12.8V28.8ZM22.4 28.8H25.6V32H22.4V28.8ZM32 28.8H35.2V32H32V28.8ZM35.2 28.8H38.4V32H35.2V28.8ZM38.4 28.8H41.6V32H38.4V28.8ZM41.6 28.8H44.8V32H41.6V28.8ZM44.8 28.8H48V32H44.8V28.8ZM48 28.8H51.2V32H48V28.8ZM51.2 28.8H54.4V32H51.2V28.8ZM57.6 28.8H60.8V32H57.6V28.8ZM60.8 28.8H64V32H60.8V28.8ZM67.2 28.8H70.4V32H67.2V28.8ZM73.6 28.8H76.8V32H73.6V28.8ZM76.8 28.8H80V32H76.8V28.8ZM19.2 32H22.4V35.2H19.2V32ZM35.2 32H38.4V35.2H35.2V32ZM48 32H51.2V35.2H48V32ZM54.4 32H57.6V35.2H54.4V32ZM60.8 32H64V35.2H60.8V32ZM67.2 32H70.4V35.2H67.2V32ZM70.4 32H73.6V35.2H70.4V32ZM76.8 32H80V35.2H76.8V32ZM0 35.2H3.2V38.4H0V35.2ZM3.2 35.2H6.4V38.4H3.2V35.2ZM12.8 35.2H16V38.4H12.8V35.2ZM22.4 35.2H25.6V38.4H22.4V35.2ZM28.8 35.2H32V38.4H28.8V35.2ZM32 35.2H35.2V38.4H32V35.2ZM41.6 35.2H44.8V38.4H41.6V35.2ZM48 35.2H51.2V38.4H48V35.2ZM54.4 35.2H57.6V38.4H54.4V35.2ZM60.8 35.2H64V38.4H60.8V35.2ZM67.2 35.2H70.4V38.4H67.2V35.2ZM0 38.4H3.2V41.6H0V38.4ZM3.2 38.4H6.4V41.6H3.2V38.4ZM9.6 38.4H12.8V41.6H9.6V38.4ZM19.2 38.4H22.4V41.6H19.2V38.4ZM22.4 38.4H25.6V41.6H22.4V38.4ZM25.6 38.4H28.8V41.6H25.6V38.4ZM28.8 38.4H32V41.6H28.8V38.4ZM32 38.4H35.2V41.6H32V38.4ZM41.6 38.4H44.8V41.6H41.6V38.4ZM48 38.4H51.2V41.6H48V38.4ZM51.2 38.4H54.4V41.6H51.2V38.4ZM57.6 38.4H60.8V41.6H57.6V38.4ZM60.8 38.4H64V41.6H60.8V38.4ZM76.8 38.4H80V41.6H76.8V38.4ZM6.4 41.6H9.6V44.8H6.4V41.6ZM9.6 41.6H12.8V44.8H9.6V41.6ZM12.8 41.6H16V44.8H12.8V41.6ZM32 41.6H35.2V44.8H32V41.6ZM35.2 41.6H38.4V44.8H35.2V41.6ZM38.4 41.6H41.6V44.8H38.4V41.6ZM48 41.6H51.2V44.8H48V41.6ZM51.2 41.6H54.4V44.8H51.2V41.6ZM57.6 41.6H60.8V44.8H57.6V41.6ZM60.8 41.6H64V44.8H60.8V41.6ZM73.6 41.6H76.8V44.8H73.6V41.6ZM76.8 41.6H80V44.8H76.8V41.6ZM0 44.8H3.2V48H0V44.8ZM3.2 44.8H6.4V48H3.2V44.8ZM9.6 44.8H12.8V48H9.6V44.8ZM16 44.8H19.2V48H16V44.8ZM19.2 44.8H22.4V48H19.2V44.8ZM25.6 44.8H28.8V48H25.6V44.8ZM28.8 44.8H32V48H28.8V44.8ZM32 44.8H35.2V48H32V44.8ZM38.4 44.8H41.6V48H38.4V44.8ZM48 44.8H51.2V48H48V44.8ZM51.2 44.8H54.4V48H51.2V44.8ZM57.6 44.8H60.8V48H57.6V44.8ZM67.2 44.8H70.4V48H67.2V44.8ZM70.4 44.8H73.6V48H70.4V44.8ZM76.8 44.8H80V48H76.8V44.8ZM6.4 48H9.6V51.2H6.4V48ZM9.6 48H12.8V51.2H9.6V48ZM12.8 48H16V51.2H12.8V48ZM22.4 48H25.6V51.2H22.4V48ZM32 48H35.2V51.2H32V48ZM44.8 48H48V51.2H44.8V48ZM48 48H51.2V51.2H48V48ZM51.2 48H54.4V51.2H51.2V48ZM54.4 48H57.6V51.2H54.4V48ZM57.6 48H60.8V51.2H57.6V48ZM60.8 48H64V51.2H60.8V48ZM64 48H67.2V51.2H64V48ZM67.2 48H70.4V51.2H67.2V48ZM0 51.2H3.2V54.4H0V51.2ZM3.2 51.2H6.4V54.4H3.2V51.2ZM6.4 51.2H9.6V54.4H6.4V51.2ZM12.8 51.2H16V54.4H12.8V51.2ZM19.2 51.2H22.4V54.4H19.2V51.2ZM25.6 51.2H28.8V54.4H25.6V51.2ZM35.2 51.2H38.4V54.4H35.2V51.2ZM51.2 51.2H54.4V54.4H51.2V51.2ZM54.4 51.2H57.6V54.4H54.4V51.2ZM57.6 51.2H60.8V54.4H57.6V51.2ZM60.8 51.2H64V54.4H60.8V51.2ZM64 51.2H67.2V54.4H64V51.2ZM73.6 51.2H76.8V54.4H73.6V51.2ZM25.6 54.4H28.8V57.6H25.6V54.4ZM28.8 54.4H32V57.6H28.8V54.4ZM32 54.4H35.2V57.6H32V54.4ZM35.2 54.4H38.4V57.6H35.2V54.4ZM41.6 54.4H44.8V57.6H41.6V54.4ZM44.8 54.4H48V57.6H44.8V54.4ZM51.2 54.4H54.4V57.6H51.2V54.4ZM64 54.4H67.2V57.6H64V54.4ZM76.8 54.4H80V57.6H76.8V54.4ZM0 57.6H3.2V60.8H0V57.6ZM3.2 57.6H6.4V60.8H3.2V57.6ZM6.4 57.6H9.6V60.8H6.4V57.6ZM9.6 57.6H12.8V60.8H9.6V57.6ZM12.8 57.6H16V60.8H12.8V57.6ZM16 57.6H19.2V60.8H16V57.6ZM19.2 57.6H22.4V60.8H19.2V57.6ZM32 57.6H35.2V60.8H32V57.6ZM35.2 57.6H38.4V60.8H35.2V57.6ZM44.8 57.6H48V60.8H44.8V57.6ZM51.2 57.6H54.4V60.8H51.2V57.6ZM57.6 57.6H60.8V60.8H57.6V57.6ZM64 57.6H67.2V60.8H64V57.6ZM76.8 57.6H80V60.8H76.8V57.6ZM0 60.8H3.2V64H0V60.8ZM19.2 60.8H22.4V64H19.2V60.8ZM28.8 60.8H32V64H28.8V60.8ZM32 60.8H35.2V64H32V60.8ZM38.4 60.8H41.6V64H38.4V60.8ZM41.6 60.8H44.8V64H41.6V60.8ZM51.2 60.8H54.4V64H51.2V60.8ZM64 60.8H67.2V64H64V60.8ZM73.6 60.8H76.8V64H73.6V60.8ZM0 64H3.2V67.2H0V64ZM6.4 64H9.6V67.2H6.4V64ZM9.6 64H12.8V67.2H9.6V64ZM12.8 64H16V67.2H12.8V64ZM19.2 64H22.4V67.2H19.2V64ZM28.8 64H32V67.2H28.8V64ZM32 64H35.2V67.2H32V64ZM44.8 64H48V67.2H44.8V64ZM48 64H51.2V67.2H48V64ZM51.2 64H54.4V67.2H51.2V64ZM54.4 64H57.6V67.2H54.4V64ZM57.6 64H60.8V67.2H57.6V64ZM60.8 64H64V67.2H60.8V64ZM64 64H67.2V67.2H64V64ZM73.6 64H76.8V67.2H73.6V64ZM76.8 64H80V67.2H76.8V64ZM0 67.2H3.2V70.4H0V67.2ZM6.4 67.2H9.6V70.4H6.4V67.2ZM9.6 67.2H12.8V70.4H9.6V67.2ZM12.8 67.2H16V70.4H12.8V67.2ZM19.2 67.2H22.4V70.4H19.2V67.2ZM28.8 67.2H32V70.4H28.8V67.2ZM32 67.2H35.2V70.4H32V67.2ZM35.2 67.2H38.4V70.4H35.2V67.2ZM38.4 67.2H41.6V70.4H38.4V67.2ZM48 67.2H51.2V70.4H48V67.2ZM54.4 67.2H57.6V70.4H54.4V67.2ZM64 67.2H67.2V70.4H64V67.2ZM70.4 67.2H73.6V70.4H70.4V67.2ZM73.6 67.2H76.8V70.4H73.6V67.2ZM0 70.4H3.2V73.6H0V70.4ZM6.4 70.4H9.6V73.6H6.4V70.4ZM9.6 70.4H12.8V73.6H9.6V70.4ZM12.8 70.4H16V73.6H12.8V70.4ZM19.2 70.4H22.4V73.6H19.2V70.4ZM25.6 70.4H28.8V73.6H25.6V70.4ZM41.6 70.4H44.8V73.6H41.6V70.4ZM44.8 70.4H48V73.6H44.8V70.4ZM48 70.4H51.2V73.6H48V70.4ZM51.2 70.4H54.4V73.6H51.2V70.4ZM54.4 70.4H57.6V73.6H54.4V70.4ZM60.8 70.4H64V73.6H60.8V70.4ZM64 70.4H67.2V73.6H64V70.4ZM67.2 70.4H70.4V73.6H67.2V70.4ZM73.6 70.4H76.8V73.6H73.6V70.4ZM76.8 70.4H80V73.6H76.8V70.4ZM0 73.6H3.2V76.8H0V73.6ZM19.2 73.6H22.4V76.8H19.2V73.6ZM25.6 73.6H28.8V76.8H25.6V73.6ZM28.8 73.6H32V76.8H28.8V73.6ZM32 73.6H35.2V76.8H32V73.6ZM41.6 73.6H44.8V76.8H41.6V73.6ZM51.2 73.6H54.4V76.8H51.2V73.6ZM54.4 73.6H57.6V76.8H54.4V73.6ZM57.6 73.6H60.8V76.8H57.6V73.6ZM60.8 73.6H64V76.8H60.8V73.6ZM64 73.6H67.2V76.8H64V73.6ZM0 76.8H3.2V80H0V76.8ZM3.2 76.8H6.4V80H3.2V76.8ZM6.4 76.8H9.6V80H6.4V76.8ZM9.6 76.8H12.8V80H9.6V76.8ZM12.8 76.8H16V80H12.8V76.8ZM16 76.8H19.2V80H16V76.8ZM19.2 76.8H22.4V80H19.2V76.8ZM32 76.8H35.2V80H32V76.8ZM38.4 76.8H41.6V80H38.4V76.8ZM51.2 76.8H54.4V80H51.2V76.8ZM57.6 76.8H60.8V80H57.6V76.8ZM67.2 76.8H70.4V80H67.2V76.8ZM76.8 76.8H80V80H76.8V76.8Z" fill="#4C6029"/>
</svg>
