<svg width="39" height="39" viewBox="0 0 39 39" fill="none" xmlns="http://www.w3.org/2000/svg">
<path fill-rule="evenodd" clip-rule="evenodd" d="M19.5 0C8.73068 0 0 8.73068 0 19.5C0 30.2693 8.73068 39 19.5 39C30.2693 39 39 30.2693 39 19.5C39 8.73068 30.2693 0 19.5 0ZM26.0715 15.4351C26.3944 15.1008 26.5731 14.653 26.5691 14.1882C26.565 13.7234 26.3786 13.2788 26.0499 12.9501C25.7212 12.6214 25.2766 12.435 24.8118 12.4309C24.347 12.4269 23.8992 12.6056 23.5649 12.9285L19.5 16.9934L15.4351 12.9285C15.2716 12.7592 15.076 12.6241 14.8597 12.5312C14.6434 12.4383 14.4108 12.3894 14.1754 12.3874C13.9401 12.3853 13.7066 12.4302 13.4888 12.5193C13.2709 12.6085 13.073 12.7401 12.9065 12.9065C12.7401 13.073 12.6085 13.2709 12.5193 13.4888C12.4302 13.7066 12.3853 13.9401 12.3874 14.1754C12.3894 14.4108 12.4383 14.6434 12.5312 14.8597C12.6241 15.076 12.7592 15.2716 12.9285 15.4351L16.9934 19.5L12.9285 23.5649C12.7592 23.7284 12.6241 23.924 12.5312 24.1403C12.4383 24.3566 12.3894 24.5892 12.3874 24.8246C12.3853 25.0599 12.4302 25.2934 12.5193 25.5112C12.6085 25.7291 12.7401 25.927 12.9065 26.0935C13.073 26.2599 13.2709 26.3915 13.4888 26.4807C13.7066 26.5698 13.9401 26.6147 14.1754 26.6126C14.4108 26.6106 14.6434 26.5617 14.8597 26.4688C15.076 26.3759 15.2716 26.2408 15.4351 26.0715L19.5 22.0066L23.5649 26.0715C23.8992 26.3944 24.347 26.5731 24.8118 26.5691C25.2766 26.565 25.7212 26.3786 26.0499 26.0499C26.3786 25.7212 26.565 25.2766 26.5691 24.8118C26.5731 24.347 26.3944 23.8992 26.0715 23.5649L22.0066 19.5L26.0715 15.4351Z" fill="#4C6029"/>
</svg>
