<svg width="26" height="26" viewBox="0 0 26 26" fill="none" xmlns="http://www.w3.org/2000/svg">
<path d="M12.6774 0.171875C9.29691 0.171875 8.87562 0.188198 7.55266 0.244164C6.22426 0.309456 5.32571 0.51544 4.53286 0.823249C3.70307 1.13652 2.95158 1.62699 2.33078 2.26047C1.69553 2.87982 1.20479 3.63172 0.893562 4.46255C0.585752 5.25539 0.379769 6.15395 0.314476 7.48235C0.254624 8.80608 0.242188 9.2266 0.242188 12.6071C0.242188 15.9875 0.258511 16.4088 0.314476 17.7318C0.379769 19.0563 0.585752 19.9587 0.893562 20.7516C1.20683 21.5814 1.6973 22.3329 2.33078 22.9537C2.95013 23.5889 3.70204 24.0796 4.53286 24.3909C5.32571 24.6948 6.22815 24.9047 7.55266 24.97C8.87639 25.0298 9.29691 25.0422 12.6774 25.0422C16.0578 25.0422 16.4791 25.0259 17.8021 24.97C19.1266 24.9047 20.029 24.694 20.8219 24.3909C21.6517 24.0776 22.4032 23.5871 23.024 22.9537C23.66 22.335 24.1509 21.5829 24.4612 20.7516C24.7651 19.9587 24.975 19.0563 25.0403 17.7318C25.1001 16.408 25.1126 15.9875 25.1126 12.6071C25.1126 9.2266 25.0962 8.8053 25.0403 7.48235C24.975 6.15783 24.7643 5.25073 24.4612 4.46255C24.1479 3.63276 23.6574 2.88127 23.024 2.26047C22.4053 1.6244 21.6532 1.13353 20.8219 0.823249C20.029 0.51544 19.1266 0.309456 17.8021 0.244164C16.4784 0.184312 16.0578 0.171875 12.6774 0.171875ZM12.6774 2.41049C15.9972 2.41049 16.3936 2.42681 17.7057 2.48278C18.916 2.53952 19.5751 2.74162 20.0127 2.91262C20.5537 3.11233 21.0434 3.43018 21.4461 3.84305C21.8582 4.244 22.1749 4.73254 22.3726 5.27249C22.5436 5.71011 22.7457 6.36926 22.8024 7.57951C22.8584 8.89158 22.8747 9.28878 22.8747 12.6078C22.8747 15.9269 22.8584 16.3241 22.7978 17.6362C22.7325 18.8464 22.5304 19.5056 22.3602 19.9432C22.1246 20.5269 21.8619 20.935 21.4282 21.3765C21.0242 21.7868 20.5348 22.1031 19.9948 22.3031C19.5627 22.4741 18.8942 22.6762 17.6793 22.7329C16.3602 22.7889 15.9716 22.8052 12.6432 22.8052C9.31479 22.8052 8.92692 22.7889 7.60629 22.7282C6.39604 22.6629 5.72834 22.4608 5.29073 22.2906C4.69998 22.0551 4.29501 21.7924 3.86128 21.3586C3.42366 20.921 3.14539 20.5044 2.93086 19.9253C2.75674 19.4931 2.55775 18.8247 2.49324 17.6097C2.44893 16.3062 2.42794 15.902 2.42794 12.5892C2.42794 9.2779 2.44893 8.87293 2.49324 7.55308C2.55775 6.33817 2.75674 5.67125 2.93086 5.23751C3.14539 4.64599 3.42444 4.2418 3.86128 3.80418C4.29423 3.37123 4.69998 3.0914 5.29073 2.8722C5.72834 2.70197 6.37972 2.49988 7.59463 2.43925C8.91371 2.39183 9.30235 2.37473 12.6261 2.37473L12.6774 2.41049ZM12.6774 6.22468C11.8389 6.22437 11.0087 6.38929 10.234 6.71C9.45931 7.03072 8.75543 7.50094 8.16257 8.09381C7.5697 8.68667 7.09948 9.39055 6.77876 10.1652C6.45805 10.9399 6.29313 11.7702 6.29344 12.6086C6.29313 13.4471 6.45805 14.2773 6.77876 15.052C7.09948 15.8267 7.5697 16.5306 8.16257 17.1234C8.75543 17.7163 9.45931 18.1865 10.234 18.5072C11.0087 18.8279 11.8389 18.9929 12.6774 18.9925C13.5158 18.9929 14.3461 18.8279 15.1208 18.5072C15.8954 18.1865 16.5993 17.7163 17.1922 17.1234C17.785 16.5306 18.2553 15.8267 18.576 15.052C18.8967 14.2773 19.0616 13.4471 19.0613 12.6086C19.0616 11.7702 18.8967 10.9399 18.576 10.1652C18.2553 9.39055 17.785 8.68667 17.1922 8.09381C16.5993 7.50094 15.8954 7.03072 15.1208 6.71C14.3461 6.38929 13.5158 6.22437 12.6774 6.22468ZM12.6774 16.7539C10.3859 16.7539 8.53205 14.9001 8.53205 12.6086C8.53205 10.3171 10.3859 8.46329 12.6774 8.46329C14.9688 8.46329 16.8227 10.3171 16.8227 12.6086C16.8227 14.9001 14.9688 16.7539 12.6774 16.7539ZM20.811 5.96973C20.8106 6.36589 20.6529 6.74568 20.3727 7.02566C20.0924 7.30565 19.7124 7.46291 19.3163 7.46291C19.1204 7.46291 18.9264 7.42433 18.7454 7.34937C18.5645 7.27441 18.4 7.16454 18.2615 7.02602C18.123 6.88751 18.0131 6.72308 17.9382 6.54211C17.8632 6.36113 17.8246 6.16717 17.8246 5.97128C17.8246 5.7754 17.8632 5.58143 17.9382 5.40046C18.0131 5.21949 18.123 5.05505 18.2615 4.91654C18.4 4.77803 18.5645 4.66816 18.7454 4.59319C18.9264 4.51823 19.1204 4.47965 19.3163 4.47965C20.1379 4.47965 20.811 5.14813 20.811 5.96973Z" fill="#FFFBF0"/>
</svg>
