<svg width="38" height="20" viewBox="0 0 38 20" fill="none" xmlns="http://www.w3.org/2000/svg">
<path d="M18.748 2.86247C14.5042 2.86247 10.4342 4.5126 7.43345 7.44986C4.43265 10.3871 2.74682 14.3709 2.74682 18.5248C2.74682 18.8215 2.6264 19.106 2.41206 19.3158C2.19772 19.5257 1.907 19.6435 1.60388 19.6435C1.30075 19.6435 1.01004 19.5257 0.795697 19.3158C0.581354 19.106 0.460938 18.8215 0.460938 18.5248C0.460938 13.7775 2.3876 9.22459 5.81709 5.86772C9.24657 2.51086 13.898 0.625 18.748 0.625C23.598 0.625 28.2494 2.51086 31.6789 5.86772C35.1083 9.22459 37.035 13.7775 37.035 18.5248C37.035 18.8215 36.9146 19.106 36.7003 19.3158C36.4859 19.5257 36.1952 19.6435 35.8921 19.6435C35.5889 19.6435 35.2982 19.5257 35.0839 19.3158C34.8695 19.106 34.7491 18.8215 34.7491 18.5248C34.7491 14.3709 33.0633 10.3871 30.0625 7.44986C27.0617 4.5126 22.9917 2.86247 18.748 2.86247ZM18.748 7.33742C15.7167 7.33742 12.8096 8.51608 10.6662 10.6141C8.52274 12.7122 7.31858 15.5577 7.31858 18.5248C7.31858 18.8215 7.19816 19.106 6.98382 19.3158C6.76947 19.5257 6.47876 19.6435 6.17564 19.6435C5.87251 19.6435 5.5818 19.5257 5.36746 19.3158C5.15311 19.106 5.0327 18.8215 5.0327 18.5248C5.0327 16.7618 5.38745 15.0161 6.07671 13.3873C6.76597 11.7585 7.77623 10.2786 9.04981 9.03199C10.3234 7.78538 11.8354 6.79651 13.4994 6.12185C15.1634 5.44719 16.9469 5.09995 18.748 5.09995C20.5491 5.09995 22.3326 5.44719 23.9966 6.12185C25.6606 6.79651 27.1726 7.78538 28.4461 9.03199C29.7197 10.2786 30.73 11.7585 31.4192 13.3873C32.1085 15.0161 32.4633 16.7618 32.4633 18.5248C32.4633 18.8215 32.3428 19.106 32.1285 19.3158C31.9142 19.5257 31.6234 19.6435 31.3203 19.6435C31.0172 19.6435 30.7265 19.5257 30.5121 19.3158C30.2978 19.106 30.1774 18.8215 30.1774 18.5248C30.1774 15.5577 28.9732 12.7122 26.8298 10.6141C24.6864 8.51608 21.7792 7.33742 18.748 7.33742ZM18.748 11.8124C16.9292 11.8124 15.1849 12.5196 13.8989 13.7784C12.6128 15.0372 11.8903 16.7445 11.8903 18.5248C11.8903 18.8215 11.7699 19.106 11.5556 19.3158C11.3412 19.5257 11.0505 19.6435 10.7474 19.6435C10.4443 19.6435 10.1536 19.5257 9.93922 19.3158C9.72487 19.106 9.60446 18.8215 9.60446 18.5248C9.60446 16.1511 10.5678 13.8747 12.2825 12.1963C13.9973 10.5178 16.323 9.57489 18.748 9.57489C21.173 9.57489 23.4987 10.5178 25.2134 12.1963C26.9282 13.8747 27.8915 16.1511 27.8915 18.5248C27.8915 18.8215 27.7711 19.106 27.5567 19.3158C27.3424 19.5257 27.0517 19.6435 26.7486 19.6435C26.4454 19.6435 26.1547 19.5257 25.9404 19.3158C25.726 19.106 25.6056 18.8215 25.6056 18.5248C25.6056 16.7445 24.8831 15.0372 23.5971 13.7784C22.311 12.5196 20.5667 11.8124 18.748 11.8124ZM18.748 16.2873C18.1417 16.2873 17.5603 16.523 17.1316 16.9426C16.7029 17.3623 16.4621 17.9314 16.4621 18.5248C16.4621 18.8215 16.3417 19.106 16.1273 19.3158C15.913 19.5257 15.6223 19.6435 15.3192 19.6435C15.016 19.6435 14.7253 19.5257 14.511 19.3158C14.2966 19.106 14.1762 18.8215 14.1762 18.5248C14.1762 17.338 14.6579 16.1997 15.5153 15.3605C16.3726 14.5213 17.5355 14.0498 18.748 14.0498C19.9605 14.0498 21.1233 14.5213 21.9807 15.3605C22.8381 16.1997 23.3197 17.338 23.3197 18.5248C23.3197 18.8215 23.1993 19.106 22.985 19.3158C22.7706 19.5257 22.4799 19.6435 22.1768 19.6435C21.8737 19.6435 21.583 19.5257 21.3686 19.3158C21.1543 19.106 21.0339 18.8215 21.0339 18.5248C21.0339 17.9314 20.793 17.3623 20.3643 16.9426C19.9356 16.523 19.3542 16.2873 18.748 16.2873Z" fill="#FFFBF0"/>
</svg>
