<svg width="25" height="13" viewBox="0 0 25 13" fill="none" xmlns="http://www.w3.org/2000/svg">
<path d="M12.5 1.52941C9.59919 1.52941 6.8172 2.65735 4.76602 4.66509C2.71484 6.67283 1.5625 9.39592 1.5625 12.2353C1.5625 12.4381 1.48019 12.6326 1.33368 12.776C1.18716 12.9194 0.98845 13 0.78125 13C0.57405 13 0.375336 12.9194 0.228823 12.776C0.08231 12.6326 0 12.4381 0 12.2353C0 8.99029 1.31696 5.8782 3.66117 3.58363C6.00537 1.28907 9.18479 0 12.5 0C15.8152 0 18.9946 1.28907 21.3388 3.58363C23.683 5.8782 25 8.99029 25 12.2353C25 12.4381 24.9177 12.6326 24.7712 12.776C24.6247 12.9194 24.426 13 24.2188 13C24.0115 13 23.8128 12.9194 23.6663 12.776C23.5198 12.6326 23.4375 12.4381 23.4375 12.2353C23.4375 9.39592 22.2852 6.67283 20.234 4.66509C18.1828 2.65735 15.4008 1.52941 12.5 1.52941ZM12.5 4.58824C10.428 4.58824 8.44086 5.39391 6.97573 6.82801C5.5106 8.26211 4.6875 10.2072 4.6875 12.2353C4.6875 12.4381 4.60519 12.6326 4.45868 12.776C4.31216 12.9194 4.11345 13 3.90625 13C3.69905 13 3.50034 12.9194 3.35382 12.776C3.20731 12.6326 3.125 12.4381 3.125 12.2353C3.125 11.0302 3.36749 9.83695 3.83863 8.72361C4.30977 7.61027 5.00032 6.59866 5.87087 5.74655C6.74142 4.89443 7.77492 4.2185 8.91234 3.75734C10.0498 3.29618 11.2689 3.05882 12.5 3.05882C13.7311 3.05882 14.9502 3.29618 16.0877 3.75734C17.2251 4.2185 18.2586 4.89443 19.1291 5.74655C19.9997 6.59866 20.6902 7.61027 21.1614 8.72361C21.6325 9.83695 21.875 11.0302 21.875 12.2353C21.875 12.4381 21.7927 12.6326 21.6462 12.776C21.4997 12.9194 21.301 13 21.0938 13C20.8865 13 20.6878 12.9194 20.5413 12.776C20.3948 12.6326 20.3125 12.4381 20.3125 12.2353C20.3125 10.2072 19.4894 8.26211 18.0243 6.82801C16.5591 5.39391 14.572 4.58824 12.5 4.58824ZM12.5 7.64706C11.2568 7.64706 10.0645 8.13046 9.18544 8.99092C8.30636 9.85138 7.8125 11.0184 7.8125 12.2353C7.8125 12.4381 7.73019 12.6326 7.58368 12.776C7.43716 12.9194 7.23845 13 7.03125 13C6.82405 13 6.62534 12.9194 6.47882 12.776C6.33231 12.6326 6.25 12.4381 6.25 12.2353C6.25 10.6128 6.90848 9.05675 8.08058 7.90946C9.25268 6.76218 10.8424 6.11765 12.5 6.11765C14.1576 6.11765 15.7473 6.76218 16.9194 7.90946C18.0915 9.05675 18.75 10.6128 18.75 12.2353C18.75 12.4381 18.6677 12.6326 18.5212 12.776C18.3747 12.9194 18.176 13 17.9688 13C17.7615 13 17.5628 12.9194 17.4163 12.776C17.2698 12.6326 17.1875 12.4381 17.1875 12.2353C17.1875 11.0184 16.6936 9.85138 15.8146 8.99092C14.9355 8.13046 13.7432 7.64706 12.5 7.64706ZM12.5 10.7059C12.0856 10.7059 11.6882 10.867 11.3951 11.1538C11.1021 11.4407 10.9375 11.8297 10.9375 12.2353C10.9375 12.4381 10.8552 12.6326 10.7087 12.776C10.5622 12.9194 10.3635 13 10.1562 13C9.94905 13 9.75034 12.9194 9.60382 12.776C9.45731 12.6326 9.375 12.4381 9.375 12.2353C9.375 11.424 9.70424 10.646 10.2903 10.0724C10.8763 9.49874 11.6712 9.17647 12.5 9.17647C13.3288 9.17647 14.1237 9.49874 14.7097 10.0724C15.2958 10.646 15.625 11.424 15.625 12.2353C15.625 12.4381 15.5427 12.6326 15.3962 12.776C15.2497 12.9194 15.051 13 14.8438 13C14.6365 13 14.4378 12.9194 14.2913 12.776C14.1448 12.6326 14.0625 12.4381 14.0625 12.2353C14.0625 11.8297 13.8979 11.4407 13.6049 11.1538C13.3118 10.867 12.9144 10.7059 12.5 10.7059Z" fill="#4C6029"/>
</svg>
