<svg width="17" height="17" viewBox="0 0 17 17" fill="none" xmlns="http://www.w3.org/2000/svg">
<path d="M8.5 0C6.18931 0 5.90133 0.0111576 4.99703 0.0494124C4.08901 0.094043 3.47481 0.234842 2.93287 0.445243C2.36567 0.659375 1.85199 0.994633 1.42765 1.42765C0.993425 1.851 0.657981 2.36496 0.445243 2.93287C0.234842 3.47481 0.094043 4.08901 0.0494124 4.99703C0.00850106 5.90186 0 6.1893 0 8.5C0 10.8107 0.0111576 11.0987 0.0494124 12.003C0.094043 12.9083 0.234842 13.5252 0.445243 14.0671C0.659375 14.6343 0.994633 15.148 1.42765 15.5724C1.851 16.0066 2.36496 16.342 2.93287 16.5548C3.47481 16.7625 4.09167 16.906 4.99703 16.9506C5.90186 16.9915 6.18931 17 8.5 17C10.8107 17 11.0987 16.9888 12.003 16.9506C12.9083 16.906 13.5252 16.762 14.0671 16.5548C14.6343 16.3406 15.148 16.0054 15.5724 15.5724C16.0071 15.1495 16.3427 14.6354 16.5548 14.0671C16.7625 13.5252 16.906 12.9083 16.9506 12.003C16.9915 11.0981 17 10.8107 17 8.5C17 6.1893 16.9888 5.90133 16.9506 4.99703C16.906 4.09167 16.762 3.47162 16.5548 2.93287C16.3406 2.36567 16.0054 1.85199 15.5724 1.42765C15.1495 0.992865 14.6354 0.657334 14.0671 0.445243C13.5252 0.234842 12.9083 0.094043 12.003 0.0494124C11.0981 0.00850106 10.8107 0 8.5 0ZM8.5 1.53019C10.7693 1.53019 11.0402 1.54135 11.9371 1.5796C12.7643 1.61839 13.2149 1.75653 13.514 1.87342C13.8838 2.00993 14.2186 2.2272 14.4938 2.50941C14.7755 2.78347 14.992 3.11742 15.1271 3.4865C15.244 3.78563 15.3821 4.23619 15.4209 5.06345C15.4592 5.96031 15.4703 6.23181 15.4703 8.50053C15.4703 10.7693 15.4592 11.0408 15.4177 11.9376C15.3731 12.7649 15.235 13.2154 15.1186 13.5146C14.9576 13.9136 14.778 14.1925 14.4816 14.4943C14.2054 14.7748 13.8709 14.991 13.5018 15.1276C13.2064 15.2445 12.7495 15.3827 11.919 15.4215C11.0174 15.4597 10.7517 15.4709 8.47662 15.4709C6.20153 15.4709 5.9364 15.4597 5.03369 15.4183C4.20643 15.3736 3.75003 15.2355 3.4509 15.1191C3.0471 14.9581 2.77028 14.7786 2.47381 14.4821C2.17468 14.183 1.98447 13.8982 1.83782 13.5023C1.71881 13.2069 1.58279 12.75 1.53869 11.9196C1.50841 11.0285 1.49406 10.7523 1.49406 8.48778C1.49406 6.22437 1.50841 5.94756 1.53869 5.04538C1.58279 4.21493 1.71881 3.75906 1.83782 3.46259C1.98447 3.05826 2.17521 2.78197 2.47381 2.48284C2.76975 2.1869 3.0471 1.99562 3.4509 1.84579C3.75003 1.72943 4.19528 1.59129 5.02572 1.54985C5.92737 1.51744 6.19302 1.50575 8.46493 1.50575L8.5 1.53019ZM8.5 4.13736C7.92689 4.13715 7.35936 4.24988 6.82984 4.4691C6.30031 4.68832 5.81918 5.00974 5.41393 5.41499C5.00868 5.82024 4.68726 6.30138 4.46804 6.8309C4.24882 7.36042 4.13609 7.92795 4.1363 8.50106C4.13609 9.07417 4.24882 9.6417 4.46804 10.1712C4.68726 10.7008 5.00868 11.1819 5.41393 11.5871C5.81918 11.9924 6.30031 12.3138 6.82984 12.533C7.35936 12.7522 7.92689 12.865 8.5 12.8648C9.07311 12.865 9.64064 12.7522 10.1702 12.533C10.6997 12.3138 11.1808 11.9924 11.5861 11.5871C11.9913 11.1819 12.3127 10.7008 12.532 10.1712C12.7512 9.6417 12.8639 9.07417 12.8637 8.50106C12.8639 7.92795 12.7512 7.36042 12.532 6.8309C12.3127 6.30138 11.9913 5.82024 11.5861 5.41499C11.1808 5.00974 10.6997 4.68832 10.1702 4.4691C9.64064 4.24988 9.07311 4.13715 8.5 4.13736ZM8.5 11.3346C6.93368 11.3346 5.66649 10.0674 5.66649 8.50106C5.66649 6.93474 6.93368 5.66755 8.5 5.66755C10.0663 5.66755 11.3335 6.93474 11.3335 8.50106C11.3335 10.0674 10.0663 11.3346 8.5 11.3346ZM14.0597 3.96309C14.0594 4.23388 13.9516 4.49349 13.7601 4.68487C13.5685 4.87625 13.3088 4.98375 13.038 4.98375C12.9041 4.98375 12.7715 4.95738 12.6478 4.90614C12.5241 4.8549 12.4117 4.77979 12.317 4.68511C12.2223 4.59044 12.1472 4.47804 12.096 4.35433C12.0448 4.23063 12.0184 4.09805 12.0184 3.96415C12.0184 3.83026 12.0448 3.69767 12.096 3.57397C12.1472 3.45027 12.2223 3.33787 12.317 3.24319C12.4117 3.14851 12.5241 3.07341 12.6478 3.02217C12.7715 2.97093 12.9041 2.94456 13.038 2.94456C13.5996 2.94456 14.0597 3.40149 14.0597 3.96309Z" fill="#4C6029"/>
</svg>
